<?xml version="1.0" encoding="UTF-8" standalone="no"?>
<!-- Created with Inkscape (http://www.inkscape.org/) -->

<svg
   width="135.46666mm"
   height="135.46666mm"
   viewBox="0 0 135.46666 135.46666"
   version="1.1"
   id="svg5"
   xml:space="preserve"
   xmlns="http://www.w3.org/2000/svg"
   xmlns:svg="http://www.w3.org/2000/svg"><defs
     id="defs2" /><g
     id="layer1"
     transform="translate(-37.298925,-50.782797)"><g
       id="g80"
       transform="matrix(0.26458333,0,0,0.26458333,37.298925,50.782797)"><circle
         style="fill:#273b7a"
         cx="256"
         cy="256"
         r="256"
         id="circle9" /><path
         style="fill:#121149"
         d="m 506.239,310.165 -156.522,-156.524 -130.493,10.416 -66.658,60.85 8.554,132.367 148.202,149.147 C 407.63,485.591 485.086,408.35 506.239,310.165 Z"
         id="path11" /><path
         style="fill:#4285f4"
         d="m 261.584,232.469 v 49.055 h 76.717 c -10.88,35.116 -43.608,60.623 -82.298,60.623 -47.578,0 -86.149,-38.569 -86.149,-86.149 -0.002,-47.576 38.567,-86.147 86.145,-86.147 22.235,0 42.436,8.497 57.72,22.326 l 35.997,-38.538 c -24.693,-22.619 -57.589,-36.431 -93.717,-36.431 -76.652,0 -138.792,62.138 -138.792,138.792 0,76.654 62.14,138.792 138.793,138.792 76.653,0 138.792,-62.139 138.792,-138.792 0,-8.03 -0.741,-15.879 -2.06,-23.531 z"
         id="path13" /><path
         style="fill:#ea4335"
         d="m 256,169.853 c 22.235,0 42.436,8.497 57.72,22.326 l 35.997,-38.538 C 325.024,131.02 292.128,117.208 256,117.208 c -53.157,0 -99.311,29.896 -122.625,73.778 l 42.356,33.921 c 12.482,-32.19 43.67,-55.054 80.269,-55.054 z"
         id="path15" /><path
         style="fill:#fbbc05"
         d="m 169.855,256 c 0,-10.978 2.132,-21.437 5.877,-31.092 l -42.356,-33.921 c -10.305,19.397 -16.167,41.517 -16.167,65.014 0,23.605 5.911,45.825 16.305,65.286 l 42.105,-34.504 c -3.668,-9.574 -5.764,-19.922 -5.764,-30.783 z"
         id="path17" /><path
         style="fill:#34a853"
         d="m 303.895,327.547 c -13.702,9.192 -30.153,14.601 -47.892,14.601 -36.719,0 -67.986,-23.012 -80.386,-55.367 l -42.105,34.504 c 23.362,43.735 69.441,73.506 122.487,73.506 34.451,0 65.943,-12.579 90.207,-33.358 z"
         id="path19" /><path
         style="fill:#4285f4"
         d="m 394.792,256 c 0,-8.03 -0.741,-15.879 -2.06,-23.531 H 261.584 v 49.055 h 76.717 c -5.891,19.016 -18.225,35.166 -34.406,46.023 l 42.312,33.887 C 375.932,335.977 394.792,298.203 394.792,256 Z"
         id="path21" /><g
         id="g23">
</g><g
         id="g25">
</g><g
         id="g27">
</g><g
         id="g29">
</g><g
         id="g31">
</g><g
         id="g33">
</g><g
         id="g35">
</g><g
         id="g37">
</g><g
         id="g39">
</g><g
         id="g41">
</g><g
         id="g43">
</g><g
         id="g45">
</g><g
         id="g47">
</g><g
         id="g49">
</g><g
         id="g51">
</g></g></g></svg>
