{
	"asset":{
		"generator":"Khronos glTF Blender I/O v3.5.30",
		"version":"2.0"
	},
	"scene":0,
	"scenes":[
		{
			"name":"Scene",
			"nodes":[
				0
			]
		}
	],
	"nodes":[
		{
			"mesh":0,
			"name":"Cube",
			"rotation":[
				0,
				1,
				0,
				0
			],
			"scale":[
				-0.06697481870651245,
				-0.2424081563949585,
				-0.06697481870651245
			],
			"translation":[
				0.0942733958363533,
				1.6419447660446167,
				-3.9810385704040527
			]
		}
	],
	"materials":[
		{
			"doubleSided":true,
			"name":"Material.003",
			"pbrMetallicRoughness":{
				"baseColorFactor":[
					0.0056046294048428535,
					0.0056046294048428535,
					0.0056046294048428535,
					1
				],
				"metallicFactor":0,
				"roughnessFactor":0.5
			}
		},
		{
			"doubleSided":true,
			"name":"Material.002",
			"pbrMetallicRoughness":{
				"baseColorFactor":[
					0.04911642521619797,
					0.056063659489154816,
					0.06071953475475311,
					1
				],
				"metallicFactor":0,
				"roughnessFactor":0.5
			}
		},
		{
			"doubleSided":true,
			"name":"Material.001",
			"pbrMetallicRoughness":{
				"baseColorTexture":{
					"index":0
				},
				"metallicFactor":0,
				"roughnessFactor":0.5
			}
		},
		{
			"doubleSided":true,
			"name":"Material.004",
			"pbrMetallicRoughness":{
				"baseColorFactor":[
					0.00901817623525858,
					0.00901817623525858,
					0.00901817623525858,
					1
				],
				"metallicFactor":0,
				"roughnessFactor":0.5
			}
		}
	],
	"meshes":[
		{
			"name":"Cube.001",
			"primitives":[
				{
					"attributes":{
						"POSITION":0,
						"TEXCOORD_0":1,
						"NORMAL":2
					},
					"indices":3,
					"material":0
				},
				{
					"attributes":{
						"POSITION":4,
						"TEXCOORD_0":5,
						"NORMAL":6
					},
					"indices":7,
					"material":1
				},
				{
					"attributes":{
						"POSITION":8,
						"TEXCOORD_0":9,
						"NORMAL":10
					},
					"indices":11,
					"material":2
				},
				{
					"attributes":{
						"POSITION":12,
						"TEXCOORD_0":13,
						"NORMAL":14
					},
					"indices":15,
					"material":3
				}
			]
		}
	],
	"textures":[
		{
			"sampler":0,
			"source":0
		}
	],
	"images":[
		{
			"mimeType":"image/jpeg",
			"name":"face",
			"uri":"face.jpg"
		}
	],
	"accessors":[
		{
			"bufferView":0,
			"componentType":5126,
			"count":13272,
			"max":[
				1,
				1.5715630054473877,
				1
			],
			"min":[
				-1,
				-1.5715625286102295,
				-1
			],
			"type":"VEC3"
		},
		{
			"bufferView":1,
			"componentType":5126,
			"count":13272,
			"type":"VEC2"
		},
		{
			"bufferView":2,
			"componentType":5126,
			"count":13272,
			"type":"VEC3"
		},
		{
			"bufferView":3,
			"componentType":5123,
			"count":20724,
			"type":"SCALAR"
		},
		{
			"bufferView":4,
			"componentType":5126,
			"count":790,
			"max":[
				1.4500572681427002,
				17.078262329101562,
				119.68165588378906
			],
			"min":[
				-1.407597541809082,
				-3.531320095062256,
				-0.8000144958496094
			],
			"type":"VEC3"
		},
		{
			"bufferView":5,
			"componentType":5126,
			"count":790,
			"type":"VEC2"
		},
		{
			"bufferView":6,
			"componentType":5126,
			"count":790,
			"type":"VEC3"
		},
		{
			"bufferView":7,
			"componentType":5123,
			"count":2370,
			"type":"SCALAR"
		},
		{
			"bufferView":8,
			"componentType":5126,
			"count":72,
			"max":[
				1.4500572681427002,
				16.836204528808594,
				118.26661682128906
			],
			"min":[
				1.4500515460968018,
				-3.2892613410949707,
				0.6150321960449219
			],
			"type":"VEC3"
		},
		{
			"bufferView":9,
			"componentType":5126,
			"count":72,
			"type":"VEC2"
		},
		{
			"bufferView":10,
			"componentType":5126,
			"count":72,
			"type":"VEC3"
		},
		{
			"bufferView":11,
			"componentType":5123,
			"count":210,
			"type":"SCALAR"
		},
		{
			"bufferView":12,
			"componentType":5126,
			"count":13272,
			"max":[
				0.9999998807907104,
				5.204636573791504,
				0.9999961853027344
			],
			"min":[
				-1.0000001192092896,
				2.0615110397338867,
				-1.0000038146972656
			],
			"type":"VEC3"
		},
		{
			"bufferView":13,
			"componentType":5126,
			"count":13272,
			"type":"VEC2"
		},
		{
			"bufferView":14,
			"componentType":5126,
			"count":13272,
			"type":"VEC3"
		},
		{
			"bufferView":15,
			"componentType":5123,
			"count":20724,
			"type":"SCALAR"
		}
	],
	"bufferViews":[
		{
			"buffer":0,
			"byteLength":159264,
			"byteOffset":0,
			"target":34962
		},
		{
			"buffer":0,
			"byteLength":106176,
			"byteOffset":159264,
			"target":34962
		},
		{
			"buffer":0,
			"byteLength":159264,
			"byteOffset":265440,
			"target":34962
		},
		{
			"buffer":0,
			"byteLength":41448,
			"byteOffset":424704,
			"target":34963
		},
		{
			"buffer":0,
			"byteLength":9480,
			"byteOffset":466152,
			"target":34962
		},
		{
			"buffer":0,
			"byteLength":6320,
			"byteOffset":475632,
			"target":34962
		},
		{
			"buffer":0,
			"byteLength":9480,
			"byteOffset":481952,
			"target":34962
		},
		{
			"buffer":0,
			"byteLength":4740,
			"byteOffset":491432,
			"target":34963
		},
		{
			"buffer":0,
			"byteLength":864,
			"byteOffset":496172,
			"target":34962
		},
		{
			"buffer":0,
			"byteLength":576,
			"byteOffset":497036,
			"target":34962
		},
		{
			"buffer":0,
			"byteLength":864,
			"byteOffset":497612,
			"target":34962
		},
		{
			"buffer":0,
			"byteLength":420,
			"byteOffset":498476,
			"target":34963
		},
		{
			"buffer":0,
			"byteLength":159264,
			"byteOffset":498896,
			"target":34962
		},
		{
			"buffer":0,
			"byteLength":106176,
			"byteOffset":658160,
			"target":34962
		},
		{
			"buffer":0,
			"byteLength":159264,
			"byteOffset":764336,
			"target":34962
		},
		{
			"buffer":0,
			"byteLength":41448,
			"byteOffset":923600,
			"target":34963
		}
	],
	"samplers":[
		{
			"magFilter":9729,
			"minFilter":9987
		}
	],
	"buffers":[
		{
			"byteLength":965048,
			"uri":"tab.bin"
		}
	]
}
